<svg width="24" height="24" xmlns="http://www.w3.org/2000/svg">
 <title/>

 <g>
  <title>background</title>
  <rect fill="none" id="canvas_background" height="402" width="582" y="-1" x="-1"/>
 </g>
 <g>
  <title>Layer 1</title>
  <path fill="#00ff00" stroke="null" id="svg_1" d="m11.535948,2.318389c-1.483185,0.020144 -4.674537,0.264965 -6.459753,1.909763c-1.325236,1.324826 -1.788297,3.277975 -1.842231,5.696751c-0.046229,2.409478 -0.100163,6.93403 4.237672,8.16666l0,1.8749s-0.029278,0.751509 0.463832,0.90646c0.608684,0.193688 0.955402,-0.386601 1.533267,-1.006403l1.07868,-1.224108c2.96637,0.247921 5.239303,-0.324621 5.501268,-0.409844c0.600979,-0.193688 3.991887,-0.628324 4.546636,-5.15365c0.570159,-4.672529 -0.277375,-7.616586 -1.802937,-8.949159l-0.007705,-0.00155c-0.462291,-0.426114 -2.311457,-1.781929 -6.448966,-1.797424c0,0 -0.305112,-0.019369 -0.799764,-0.012396zm0.051623,1.314754c0.419915,-0.002324 0.678027,0.015495 0.678027,0.015495c3.498005,0.007748 5.17073,1.069158 5.563678,1.425543c1.286711,1.10712 1.947788,3.762195 1.463923,7.663846c-0.462291,3.780789 -3.212926,4.020962 -3.721446,4.18366c-0.215736,0.069728 -2.218999,0.565569 -4.740028,0.402871c0,0 -1.879215,2.278545 -2.464784,2.867357c-0.092458,0.100718 -0.200326,0.131708 -0.26967,0.116213c-0.100163,-0.023243 -0.130983,-0.147203 -0.123278,-0.317648l0.01541,-3.113728c-3.675988,-1.022673 -3.460252,-4.882486 -3.421727,-6.896841c0.046229,-2.014355 0.423767,-3.666126 1.540972,-4.781769c1.507841,-1.371311 4.21841,-1.557251 5.478154,-1.564999l0.00077,0zm0.277375,2.014355a0.230375,0.231651 0 0 0 -0.231146,0.231651a0.231146,0.232426 0 0 0 0.231146,0.232426a4.338605,4.362628 0 0 1 3.105058,1.231856c0.839829,0.821237 1.248957,1.921385 1.264367,3.362423a0.231146,0.232426 0 0 0 0.231146,0.232426l0,-0.006973a0.231146,0.232426 0 0 0 0.231146,-0.232426a4.970404,4.997925 0 0 0 -1.394579,-3.687819c-0.916878,-0.898712 -2.074148,-1.363563 -3.437907,-1.363563l0.00077,0zm-3.046501,0.534579a0.735814,0.739888 0 0 0 -0.473849,0.09297l-0.009246,0c-0.315899,0.18594 -0.607143,0.418366 -0.884518,0.728267c-0.208031,0.247921 -0.324375,0.495066 -0.355194,0.73524a0.955402,0.960692 0 0 0 0.038524,0.419141l0.01541,0.007748a10.572606,10.631146 0 0 0 0.924583,2.014355a11.852382,11.918009 0 0 0 1.787527,2.456738l0.023115,0.03099l0.030819,0.023243l0.023115,0.023243l0.023115,0.023243a12.021889,12.088454 0 0 0 2.450145,1.805172c1.017041,0.557821 1.634971,0.821237 2.004804,0.929702l0,0.007748c0.107868,0.03099 0.20649,0.046485 0.306653,0.046485a1.417694,1.425543 0 0 0 0.849075,-0.365683c0.300489,-0.271163 0.53934,-0.571767 0.716552,-0.889415l0,-0.007748c0.177212,-0.333143 0.115573,-0.651566 -0.138687,-0.868497a10.503262,10.561418 0 0 0 -1.656544,-1.193118c-0.392948,-0.216931 -0.7936,-0.085223 -0.955402,0.131708l-0.346719,0.440834c-0.177212,0.216931 -0.500816,0.18594 -0.500816,0.18594l-0.009246,0.007748c-2.403916,-0.619802 -3.043419,-3.067243 -3.043419,-3.067243s-0.030819,-0.333143 0.192621,-0.503589l0.431472,-0.348638c0.208031,-0.170445 0.354423,-0.573316 0.130983,-0.96844a10.418508,10.476195 0 0 0 -1.186548,-1.665717a0.649519,0.653116 0 0 0 -0.388325,-0.232426zm3.446383,0.689529a0.231146,0.232426 0 0 0 0.001541,0.464851a2.912436,2.928562 0 0 1 2.041787,0.890965a2.6967,2.711632 0 0 1 0.693437,1.991112a0.231146,0.232426 0 0 0 0.231146,0.231651l0.007705,0.009297a0.231146,0.232426 0 0 0 0.231146,-0.2332c0.023115,-0.921955 -0.261965,-1.696707 -0.82442,-2.316508c-0.562455,-0.619802 -1.34835,-0.96844 -2.349982,-1.038168a0.231146,0.232426 0 0 0 -0.03236,0zm0.377538,1.254323a0.234998,0.236299 0 0 0 -0.013869,0.473373c0.762781,0.038738 1.132614,0.426114 1.178843,1.224108a0.231146,0.232426 0 0 0 0.231146,0.224678l0.007705,0a0.231146,0.232426 0 0 0 0.223441,-0.247921c-0.053934,-1.038168 -0.616389,-1.620006 -1.61802,-1.674239a0.234998,0.236299 0 0 0 -0.009246,0z"/>
 </g>
</svg>