<svg width="24" height="24" xmlns="http://www.w3.org/2000/svg">
 <title/>

 <g>
  <title>background</title>
  <rect fill="none" id="canvas_background" height="402" width="582" y="-1" x="-1"/>
 </g>
 <g>
  <title>Layer 1</title>
  <path stroke="null" fill="#bc009d" transform="rotate(-0.25354164838790894 12.401784896850277,11.106369972228997) " id="svg_1" d="m12.401785,5.155769c-2.340956,0 -2.633216,0.009921 -3.552365,0.047621c-0.917712,0.039684 -1.542446,0.172625 -2.09178,0.36906c-0.566569,0.202388 -1.047685,0.474223 -1.526648,0.915375s-0.774813,0.883628 -0.993829,1.406133c-0.213271,0.50597 -0.358324,1.081386 -0.400691,1.926654c-0.043085,0.84659 -0.051702,1.115779 -0.051702,3.271938s0.010771,2.425348 0.051702,3.271938c0.043085,0.844606 0.18742,1.420684 0.400691,1.926654c0.219734,0.521182 0.514867,0.96498 0.993829,1.406133c0.478962,0.440491 0.959361,0.713649 1.526648,0.915375c0.550053,0.195774 1.174786,0.330038 2.09178,0.36906c0.919148,0.039684 1.211409,0.047621 3.552365,0.047621s2.633216,-0.009921 3.552365,-0.047621c0.916994,-0.039684 1.542446,-0.173286 2.09178,-0.36906c0.565851,-0.202388 1.047685,-0.474884 1.526648,-0.915375c0.478244,-0.441153 0.774813,-0.882967 0.993829,-1.406133c0.212553,-0.50597 0.358324,-1.082048 0.400691,-1.926654c0.043085,-0.84659 0.051702,-1.115779 0.051702,-3.271938s-0.010771,-2.425348 -0.051702,-3.271938c-0.043085,-0.844606 -0.188138,-1.421345 -0.400691,-1.926654c-0.219734,-0.521843 -0.515585,-0.96498 -0.993829,-1.406133c-0.478962,-0.441153 -0.958643,-0.713649 -1.526648,-0.915375c-0.549335,-0.196435 -1.174786,-0.330038 -2.09178,-0.36906c-0.919148,-0.039684 -1.211409,-0.047621 -3.552365,-0.047621zm0,1.428621c2.300025,0 2.574333,0.010582 3.48271,0.046959c0.840159,0.036377 1.296143,0.164688 1.599174,0.27448c0.403564,0.143523 0.689361,0.315487 0.992393,0.592613c0.300877,0.277787 0.487579,0.541685 0.643404,0.913391c0.117766,0.27911 0.25851,0.699098 0.296569,1.472934c0.040931,0.83733 0.050266,1.088662 0.050266,3.207782s-0.010771,2.371113 -0.053138,3.207782c-0.043803,0.773836 -0.18383,1.193824 -0.302314,1.472934c-0.160851,0.371706 -0.343963,0.634942 -0.645558,0.914053c-0.300877,0.277126 -0.591702,0.44909 -0.990957,0.592613c-0.301596,0.108469 -0.76476,0.238103 -1.604919,0.273158c-0.91484,0.0377 -1.184122,0.046298 -3.489173,0.046298c-2.30577,0 -2.575051,-0.009921 -3.489173,-0.048943c-0.840877,-0.040345 -1.304042,-0.169318 -1.605637,-0.278449c-0.40859,-0.148153 -0.689361,-0.31681 -0.990239,-0.594597c-0.302314,-0.277126 -0.495478,-0.544992 -0.646276,-0.91273c-0.118484,-0.277787 -0.257792,-0.704389 -0.301596,-1.478225c-0.032314,-0.833362 -0.043803,-1.090646 -0.043803,-3.203814c0,-2.113829 0.011489,-2.371775 0.043803,-3.215058c0.043803,-0.773836 0.183112,-1.199777 0.301596,-1.477564c0.150798,-0.376997 0.343963,-0.634942 0.646276,-0.913391c0.300877,-0.277126 0.581649,-0.455704 0.990239,-0.593936c0.301596,-0.109792 0.754707,-0.238765 1.594866,-0.278449c0.915558,-0.029763 1.18484,-0.039684 3.489173,-0.039684l0.032314,0.019842zm0,2.432623c-2.445078,0 -4.424837,1.82546 -4.424837,4.075537c0,2.252062 1.981913,4.075537 4.424837,4.075537c2.445078,0 4.424837,-1.82546 4.424837,-4.075537c0,-2.252062 -1.981913,-4.075537 -4.424837,-4.075537zm0,6.721131c-1.586967,0 -2.872338,-1.183903 -2.872338,-2.645594s1.285371,-2.645594 2.872338,-2.645594s2.872338,1.183903 2.872338,2.645594s-1.285371,2.645594 -2.872338,2.645594zm5.634092,-13.602981c0,0.525812 -0.463883,0.952414 -1.034042,0.952414c-0.570877,0 -1.034042,-0.427263 -1.034042,-0.952414c0,-0.52515 0.463883,-0.951752 1.034042,-0.951752c0.569441,-0.000661 1.034042,0.426602 1.034042,0.951752z"/>
 </g>
</svg>