<svg width="24" height="24" xmlns="http://www.w3.org/2000/svg">
 <title/>

 <g>
  <title>background</title>
  <rect fill="none" id="canvas_background" height="402" width="582" y="-1" x="-1"/>
 </g>
 <g>
  <title>Layer 1</title>
  <path stroke="null" fill="#0e20a3" id="svg_1" d="m2.565289,20.993604l-0.747307,0c-0.019162,-0.048306 -0.037557,-0.095879 -0.053653,-0.144185c-0.164791,-0.487448 -0.455282,-1.090537 -0.530396,-1.576522c-0.111904,-0.720194 0.597845,-0.760448 1.053127,-1.07224c0.701318,-0.483057 1.253176,-0.750202 2.013512,-1.186417c0.226108,-0.130279 0.905965,-0.455976 0.981846,-0.606017c0.15406,-0.298617 -0.264432,-0.71873 -0.375569,-0.952207c-0.172455,-0.370344 -0.264432,-0.685062 -0.288192,-1.049551c-0.63157,-0.095879 -1.115211,-0.458904 -1.413367,-0.867306c-0.482875,-0.677011 -0.817055,-1.928567 -0.402396,-2.880775c0.034491,-0.075386 0.194683,-0.223231 0.218443,-0.338872c0.045988,-0.226158 -0.080479,-0.526971 -0.092743,-0.767767c-0.045988,-1.238382 0.218443,-2.305498 1.092984,-2.678769c0.354875,-1.346704 1.619547,-1.795361 2.815238,-2.464321c0.445318,-0.250311 0.938157,-0.41133 1.448625,-0.590647c1.818063,-0.64188 4.620271,-0.521116 6.127914,0.573081c0.640767,0.463295 1.667835,1.442583 2.03574,2.151066c0.967283,1.870015 0.896768,4.995978 0.219976,7.271468c-0.092743,0.308132 -0.223042,0.755325 -0.408528,1.122009c-0.128767,0.255435 -0.528097,0.768499 -0.479043,0.99539c0.049054,0.229818 0.911331,0.856328 1.097583,1.021006c0.332647,0.308864 0.96575,0.713607 1.014804,1.097856c0.053653,0.407671 -0.190084,0.977824 -0.314252,1.37232c-0.166324,0.527703 -0.33418,1.054674 -0.50127,1.559688l-14.514609,0l0.001533,0.01171zm8.510863,-2.591673c-0.417725,-0.218839 -1.043163,-0.454512 -1.582757,-0.55332c-0.666061,-0.120032 -0.597079,0.869502 -0.574851,1.459417c0.022994,0.470614 0.276695,0.963186 0.391665,1.276441c0.057485,0.144185 0.068216,0.300081 0.195449,0.328625c0.22994,0.049769 0.988744,-0.238601 1.207187,-0.350582c0.459881,-0.240065 0.815522,-0.617727 1.206421,-0.870234c0.012263,-0.124424 0.012263,-0.248847 0.023761,-0.371807c-0.230707,-0.108322 -0.494372,-0.188831 -0.840049,-0.202737c0.240671,-0.109786 0.574851,-0.109786 0.793295,-0.242992l0.012263,-0.141258c-0.380168,-0.022689 -0.528097,-0.185904 -0.782564,-0.31911l-0.04982,-0.012442zm5.714021,2.148871c0.147928,-0.453049 0.275162,-0.893655 0.356408,-1.282296c0.045222,-0.210056 0.164791,-0.671888 0.136431,-0.860719c-0.045222,-0.335944 -0.524264,-0.584791 -0.769534,-0.794848c-0.447617,-0.38425 -0.728911,-0.713607 -1.196457,-1.075167c-0.190084,0.274464 -0.597079,0.450121 -0.752672,0.66896c1.10908,-0.504282 1.309894,1.921248 0.87454,2.699994c0.068982,0.241528 0.299689,0.330089 0.393965,0.538681l-0.065916,0.121496l0.987978,0c0.010731,0 0.023761,0 0.034491,0.010247l0.000766,-0.026349zm-5.085517,-0.008783c-0.037557,-0.054161 -0.076647,-0.098807 -0.11497,-0.152968l-0.230707,0.142721l0.345677,0l0,0.010247zm2.123884,0c0.006132,-0.152968 0.013796,-0.295689 0.022228,-0.437679c-0.405462,0.021225 -0.63157,-0.351314 -0.91593,-0.385713c-0.248336,-0.032936 -0.459881,0.264217 -0.781798,0.142721c-0.073581,0.07685 -0.14103,0.166142 -0.218443,0.231282c0.118036,0.131743 0.226108,0.274464 0.324983,0.427432l0.625438,0c0.010731,-0.120032 0.103473,-0.208593 0.229174,-0.208593c0.127234,0 0.218443,0.08856 0.218443,0.197614l0.505869,0l-0.009964,0.032936zm1.621847,0c-0.240671,-0.350582 -0.725845,-0.65725 -1.287667,-0.406207l-0.023761,0.39596l1.311427,0l0,0.010247zm-6.522645,0l-0.080479,-0.251775c-0.172455,-0.527703 -0.275162,-0.922199 -0.31042,-1.229599c-0.700552,-0.31911 -1.437128,-0.637489 -2.034207,-1.043695c-0.11497,-0.07685 -0.850013,-0.988071 -0.942756,-0.955135c-1.332888,0.494767 -2.574567,1.36061 -3.689778,2.184002c0.196216,0.407671 0.367905,0.835103 0.528863,1.273513l6.518812,0l0.009964,0.022689zm6.33486,-1.546513c-0.022228,-0.374735 -0.125701,-1.142502 -0.367905,-1.273513c-0.505869,-0.286175 -1.4149,0.570153 -1.793536,0.690186c0.034491,0.109786 0.103473,0.198346 0.11497,0.351314c0.218443,-0.054161 0.494372,-0.021225 0.688288,0.067335c-0.229174,0.021225 -0.482109,0.021225 -0.63157,0.120032c-0.056719,0.142721 0.012263,0.351314 -0.022228,0.559175c0.528097,0.144185 1.149702,0.221767 1.828027,0.242992c0.125701,-0.166142 0.172455,-0.472078 0.161725,-0.79192l0.022228,0.034399zm-3.12719,-0.263485c-0.034491,0.274464 0.034491,0.373271 0.09121,0.690186c0.96575,0.286175 0.793295,-1.273513 -0.103473,-0.701896l0.012263,0.01171zm-5.057158,-1.031985c-0.344911,0.33448 0.974181,0.79192 1.390373,0.816073c0,-0.212984 0.126467,-0.412794 0.103473,-0.564298c-0.497438,-0.085633 -1.151235,-0.030008 -1.490781,-0.253239l-0.003066,0.001464zm9.322553,1.189344c0,0.031472 -0.046755,0.021225 -0.05212,0.046842c0.444552,0.330089 0.777199,0.398888 1.381942,0.373271c0.27133,-0.191759 0.513534,-0.412062 0.799426,-0.590647c-0.65533,0.054161 -1.480817,0.444266 -2.126949,0.167606l-0.002299,0.002928zm2.621321,-12.974465c-1.230182,-0.663105 -3.334137,-1.16446 -4.657061,-0.535022c-1.057726,0.506478 -2.506351,1.347436 -2.98846,2.409428c0.459881,1.02613 -0.127234,1.965895 -0.173222,3.007394c-0.013796,0.554783 0.275929,1.039304 0.299689,1.641661c-0.153294,0.247384 -0.632336,0.278124 -0.96575,0.260558c-0.111904,-0.533558 -0.307354,-1.13372 -0.885271,-1.193736c-0.815522,-0.084169 -1.414134,0.559907 -1.449391,1.232527c-0.045988,0.789725 0.639235,2.096173 1.598853,2.009077c0.374037,-0.033668 0.466013,-0.39596 0.873007,-0.39596c0.218443,0.417185 -0.341078,0.548928 -0.400863,0.845349c-0.012263,0.07685 0.045222,0.374003 0.079713,0.515992c0.178587,0.690918 0.570252,1.580181 0.954253,2.107884c0.486707,0.658714 1.444026,0.769231 2.474926,0.835103c0.183952,-0.38425 0.862277,-0.351314 1.307595,-0.253239c-0.52963,-0.197614 -1.024002,-0.691649 -1.437128,-1.119081c-0.471378,-0.494767 -0.942756,-1.031985 -0.966516,-1.668741c0.885271,1.173974 1.609583,2.194981 3.219933,2.710973c1.218685,0.38425 2.643549,-0.185904 3.574808,-0.811682c0.390899,-0.262754 0.621606,-0.680671 0.896768,-1.05321c1.034732,-1.416966 1.517607,-3.447269 1.4149,-5.412431c-0.046755,-0.813146 -0.046755,-1.625559 -0.33418,-2.162777c-0.298156,-0.571617 -1.299164,-1.076631 -1.897009,-0.571617c-0.11497,-0.559175 0.482109,-0.89951 1.184193,-0.701896c-0.505869,-0.625778 -1.024002,-1.36061 -1.736817,-1.745591l0.01303,0.049038zm-3.191574,9.447419c0.471378,1.13006 2.088626,0.997585 3.453706,0.968309c-0.064383,0.141989 -0.196216,0.318378 -0.356408,0.376931c-0.436887,0.169802 -1.644841,0.298617 -2.251884,-0.008783c-0.387833,-0.198346 -0.63157,-0.638952 -0.844648,-0.898046c-0.105006,-0.125888 -0.609342,-0.444998 -0.009198,-0.44573l0.008431,0.007319zm0.125701,-0.637489c0.684456,0.340335 1.9315,0.379126 2.86046,0.351314c0.050587,0.19615 0.050587,0.434751 0.05212,0.66896c-1.188792,0.058552 -2.596028,-0.222499 -2.908747,-1.021006l-0.003832,0l0,0.000732zm5.116942,-0.428164c-0.362539,0.658714 -0.877606,1.388422 -1.946063,1.411111c-0.017629,-0.207861 -0.034491,-0.53795 0,-0.661641c0.815522,-0.075386 1.323691,-0.47281 1.949129,-0.744347l-0.003066,-0.005123zm-0.497438,-0.48818c-0.781798,0.483057 -1.650973,1.006368 -2.930975,0.885604c-0.269797,-0.22689 -0.372504,-0.732636 -0.108072,-1.067116c0.139497,0.229086 0.046755,0.647735 0.436887,0.709215c0.724312,0.121496 1.562829,-0.423041 2.092458,-0.614799c0.321917,-0.521116 -0.034491,-0.713607 -0.321917,-1.048087c-0.598612,-0.681403 -1.402637,-1.536999 -1.380409,-2.568984c0.240671,-0.164678 0.265198,0.252507 0.299689,0.328625c0.309653,0.70336 1.091451,1.592623 1.666302,2.195712c0.137964,0.154432 0.367905,0.286175 0.390899,0.38425c0.070515,0.284711 -0.194683,0.625046 -0.160192,0.811682l0.015329,-0.016102zm-10.301333,-0.494035c-0.240671,-0.13467 -0.301222,-0.724585 -0.588648,-0.739223c-0.410061,-0.021957 -0.335713,0.767767 -0.33418,1.228867c-0.283593,-0.240796 -0.333414,-0.998317 -0.125701,-1.383299c-0.236072,-0.109786 -0.341078,0.120764 -0.473677,0.208593c0.168623,-1.163728 1.793536,-0.537218 1.524505,0.702628l-0.002299,-0.017566zm-6.29807,-5.499528c-0.525031,0.55332 -0.413893,1.59116 -0.351809,2.33331c0.953487,-0.574545 2.221225,0.043914 2.209728,1.021006c0.456049,-0.01171 0.170922,-0.544537 0.088144,-0.889264c-0.270563,-1.119081 0.453749,-2.33331 0.031425,-3.35944c-0.815522,0.060748 -1.486182,0.379858 -1.975955,0.888532l-0.001533,0.005855zm13.28826,6.314137c0.235306,0.41133 0.309653,0.840226 0.643833,1.14909c0.149461,0.139794 0.439953,0.310327 0.296623,0.696041c-0.034491,0.08856 -0.279761,0.286175 -0.422324,0.329357c-0.5166,0.142721 -1.727619,0.021957 -1.319092,-0.592842c0.431522,0.010979 1.007139,0.262754 1.327523,-0.032936c-0.240671,-0.38425 -0.678324,-1.119813 -0.5166,-1.558956l-0.009964,0.010247zm4.751337,-0.009515l0.05212,0c0.252935,0.488912 0.459881,1.006368 0.769534,1.438192c-0.206946,0.460368 -1.573559,0.870966 -1.550565,0.041719c0.298156,-0.124424 0.804025,-0.025617 1.069223,-0.182976c-0.147928,-0.406939 -0.367905,-0.736296 -0.332647,-1.296202l-0.007665,-0.000732zm-5.310092,-1.183489c-1.089918,-0.241528 -1.633344,0.433287 -1.962159,1.136647c-0.294324,-0.068799 -0.177054,-0.450121 -0.103473,-0.646271c0.195449,-0.513065 0.981079,-1.195199 1.624146,-1.102248c0.275162,0.041719 0.649965,0.282515 0.441486,0.610408l0,0.001464zm-8.951583,-8.342975c-1.19569,0.322038 -2.728627,1.152017 -3.219167,2.176683c0.379402,-0.051233 0.643833,-0.234941 1.019403,-0.256898c0.142563,-0.01171 0.328048,0.054161 0.491306,0.010979c0.324983,-0.076118 0.597845,-0.779478 0.844648,-1.031253c0.238372,-0.253239 0.525031,-0.363756 0.721247,-0.593574c0.127234,-0.065871 0.312719,-0.054161 0.321917,-0.241528c-0.056719,-0.054893 -0.11497,-0.098807 -0.178587,-0.07685l0,0.012442l-0.000766,0z"/>
 </g>
</svg>