<svg width="512" height="512" xmlns="http://www.w3.org/2000/svg" clip-rule="evenodd">

 <g>
  <title>background</title>
  <rect fill="none" id="canvas_background" height="402" width="582" y="-1" x="-1"/>
 </g>
 <g>
  <title>Layer 1</title>
  <path fill="#ed0909" stroke="null" id="svg_1" d="m248.857132,61.428631c107.386681,0 194.571381,82.383775 194.571381,183.857086c0,101.473311 -87.184699,183.857086 -194.571381,183.857086c-107.386681,0 -194.571381,-82.383775 -194.571381,-183.857086c0,-101.473311 87.184699,-183.857086 194.571381,-183.857086zm116.526216,128.540522c-2.796964,-9.888782 -11.037366,-17.674699 -21.501658,-20.317644c-18.96919,-4.803266 -95.024558,-4.803266 -95.024558,-4.803266c0,0 -76.055369,0 -95.024558,4.803266c-10.462012,2.642946 -18.704694,10.428862 -21.501658,20.317644c-5.080897,17.922475 -5.080897,55.318001 -5.080897,55.318001c0,0 0,37.394089 5.080897,55.315128c2.796964,9.888782 11.039646,17.677572 21.501658,20.319799c18.96919,4.801112 95.024558,4.801112 95.024558,4.801112c0,0 76.055369,0 95.024558,-4.801112c10.464292,-2.642227 18.704694,-10.431017 21.501658,-20.319799c5.080897,-17.921039 5.080897,-55.315128 5.080897,-55.315128c0,0 0,-37.395526 -5.080897,-55.318001zm-140.848398,89.791923l0,-68.947844l63.187816,34.473922l-63.187816,34.473922z"/>
 </g>
</svg>